<svg xmlns="http://www.w3.org/2000/svg" width="1280" height="720" viewBox="0 0 1280 720">
<defs><marker id="arrow" markerWidth="10" markerHeight="10" refX="8" refY="3" orient="auto" markerUnits="strokeWidth"><path d="M0,0 L0,6 L8,3 z" fill="#111"/></marker><style>
  .frame{fill:#fff;stroke:#111;stroke-width:2.2}
  .top{fill:#f8f8f8;stroke:#d9d9d9;stroke-width:1.4}
  .panel{fill:#fff;stroke:#111;stroke-width:1.7}
  .soft{fill:#f7f7f7;stroke:#d9d9d9;stroke-width:1.2}
  .thin{fill:#fff;stroke:#cfcfcf;stroke-width:1.2}
  .black{fill:#111;stroke:#111;stroke-width:1.5}
  .ink{fill:#111}
  .muted{fill:#666}
  .line{stroke:#111;stroke-width:1.8;fill:none;stroke-linecap:round;stroke-linejoin:round}
  .softline{stroke:#bdbdbd;stroke-width:1.4;fill:none;stroke-linecap:round;stroke-linejoin:round}
  .dash{stroke:#999;stroke-width:1.3;fill:none;stroke-dasharray:6 6}
  .title{font:700 27px -apple-system,BlinkMacSystemFont,"Segoe UI",Arial,sans-serif;fill:#111}
  .sub{font:500 13px -apple-system,BlinkMacSystemFont,"Segoe UI",Arial,sans-serif;fill:#666}
  .h{font:700 18px -apple-system,BlinkMacSystemFont,"Segoe UI",Arial,sans-serif;fill:#111}
  .m{font:650 15px -apple-system,BlinkMacSystemFont,"Segoe UI",Arial,sans-serif;fill:#111}
  .xs{font:600 12.5px -apple-system,BlinkMacSystemFont,"Segoe UI",Arial,sans-serif;fill:#666}
  .tiny{font:600 10.5px -apple-system,BlinkMacSystemFont,"Segoe UI",Arial,sans-serif;fill:#777}
  .white{font:700 12px -apple-system,BlinkMacSystemFont,"Segoe UI",Arial,sans-serif;fill:#fff}
</style></defs>
<rect width="1280" height="720" fill="#fff"/>
<rect x="32" y="32" width="1216" height="656" rx="24" class="frame"/>
<rect x="32" y="32" width="1216" height="70" rx="24" class="top"/>
<path d="M32 78 H1248" class="softline"/>
<circle cx="62" cy="66" r="7" fill="#111"/><circle cx="86" cy="66" r="7" fill="#8f8f8f"/><circle cx="110" cy="66" r="7" fill="#d0d0d0"/>
<text x="152" y="62" class="title">Waxis AI-ready Data &amp; Analytics</text><text x="152" y="84" class="sub">Governed semantic analytics architecture for metrics, reports, natural-language queries, and anomalies.</text>
<rect x="90" y="132" width="1090" height="82" rx="20" class="soft"/><text x="120" y="170" class="h">Data Sources</text><rect x="302" y="158" width="96" height="28" rx="14.0" class="thin"/><text x="350.0" y="176.0" class="xs" text-anchor="middle">CRM</text><rect x="420" y="158" width="96" height="28" rx="14.0" class="black"/><text x="468.0" y="176.0" class="white" text-anchor="middle">ERP</text><rect x="538" y="158" width="96" height="28" rx="14.0" class="thin"/><text x="586.0" y="176.0" class="xs" text-anchor="middle">billing</text><rect x="656" y="158" width="96" height="28" rx="14.0" class="thin"/><text x="704.0" y="176.0" class="xs" text-anchor="middle">warehouse</text><rect x="774" y="158" width="96" height="28" rx="14.0" class="thin"/><text x="822.0" y="176.0" class="xs" text-anchor="middle">support</text><rect x="892" y="158" width="96" height="28" rx="14.0" class="thin"/><text x="940.0" y="176.0" class="xs" text-anchor="middle">product events</text><rect x="1010" y="158" width="96" height="28" rx="14.0" class="thin"/><text x="1058.0" y="176.0" class="xs" text-anchor="middle">spreadsheets</text><rect x="118" y="284" width="206" height="244" rx="20" class="panel"/><text x="148" y="322" class="h">Ingestion + Quality</text><rect x="148" y="356" width="116" height="24" rx="12.0" class="thin"/><text x="206.0" y="372.0" class="tiny" text-anchor="middle">contracts</text><rect x="148" y="388" width="116" height="24" rx="12.0" class="black"/><text x="206.0" y="404.0" class="white" text-anchor="middle">freshness</text><rect x="148" y="420" width="116" height="24" rx="12.0" class="thin"/><text x="206.0" y="436.0" class="tiny" text-anchor="middle">schema drift</text><rect x="148" y="452" width="116" height="24" rx="12.0" class="thin"/><text x="206.0" y="468.0" class="tiny" text-anchor="middle">PII scan</text><rect x="148" y="484" width="116" height="24" rx="12.0" class="thin"/><text x="206.0" y="500.0" class="tiny" text-anchor="middle">lineage</text><rect x="410" y="250" width="372" height="310" rx="28" class="panel"/><text x="450" y="292" class="h">Semantic Layer</text><rect x="450" y="326" width="120" height="70" rx="14" class="black"/><text x="510" y="367" class="white" text-anchor="middle">Metrics</text><rect x="622" y="326" width="120" height="70" rx="14" class="thin"/><text x="682" y="367" class="xs" text-anchor="middle">Dimensions</text><rect x="450" y="432" width="120" height="70" rx="14" class="thin"/><text x="510" y="473" class="xs" text-anchor="middle">Definitions</text><rect x="622" y="432" width="120" height="70" rx="14" class="thin"/><text x="682" y="473" class="xs" text-anchor="middle">Access</text><path d="M324 406 L410 406" class="softline" marker-end="url(#arrow)"/><path d="M570 361 L622 361" class="softline" marker-end="url(#arrow)"/><path d="M510 396 L510 432" class="softline" marker-end="url(#arrow)"/><path d="M682 396 L682 432" class="softline" marker-end="url(#arrow)"/><rect x="870" y="284" width="262" height="244" rx="20" class="panel"/><text x="902" y="322" class="h">Analytics Surfaces</text><rect x="902" y="356" width="142" height="24" rx="12.0" class="thin"/><text x="973.0" y="372.0" class="tiny" text-anchor="middle">NL query</text><rect x="902" y="390" width="142" height="24" rx="12.0" class="thin"/><text x="973.0" y="406.0" class="tiny" text-anchor="middle">dashboards</text><rect x="902" y="424" width="142" height="24" rx="12.0" class="black"/><text x="973.0" y="440.0" class="white" text-anchor="middle">scheduled reports</text><rect x="902" y="458" width="142" height="24" rx="12.0" class="thin"/><text x="973.0" y="474.0" class="tiny" text-anchor="middle">anomaly alerts</text><rect x="902" y="492" width="142" height="24" rx="12.0" class="thin"/><text x="973.0" y="508.0" class="tiny" text-anchor="middle">executive pack</text><path d="M782 406 C820 406 820 406 870 406" class="line" marker-end="url(#arrow)"/><rect x="180" y="610" width="920" height="42" rx="21" class="panel"/><text x="214" y="636" class="m">Governance: metric certification / RBAC / lineage / freshness SLO / audit logs / explainable query plans</text>
</svg>