<svg xmlns="http://www.w3.org/2000/svg" width="1280" height="720" viewBox="0 0 1280 720">
<defs><marker id="arrow" markerWidth="10" markerHeight="10" refX="8" refY="3" orient="auto" markerUnits="strokeWidth"><path d="M0,0 L0,6 L8,3 z" fill="#111"/></marker><style>
  .frame{fill:#fff;stroke:#111;stroke-width:2.2}
  .top{fill:#f8f8f8;stroke:#d9d9d9;stroke-width:1.4}
  .panel{fill:#fff;stroke:#111;stroke-width:1.7}
  .soft{fill:#f7f7f7;stroke:#d9d9d9;stroke-width:1.2}
  .thin{fill:#fff;stroke:#cfcfcf;stroke-width:1.2}
  .black{fill:#111;stroke:#111;stroke-width:1.5}
  .ink{fill:#111}
  .muted{fill:#666}
  .line{stroke:#111;stroke-width:1.8;fill:none;stroke-linecap:round;stroke-linejoin:round}
  .softline{stroke:#bdbdbd;stroke-width:1.4;fill:none;stroke-linecap:round;stroke-linejoin:round}
  .dash{stroke:#999;stroke-width:1.3;fill:none;stroke-dasharray:6 6}
  .title{font:700 27px -apple-system,BlinkMacSystemFont,"Segoe UI",Arial,sans-serif;fill:#111}
  .sub{font:500 13px -apple-system,BlinkMacSystemFont,"Segoe UI",Arial,sans-serif;fill:#666}
  .h{font:700 18px -apple-system,BlinkMacSystemFont,"Segoe UI",Arial,sans-serif;fill:#111}
  .m{font:650 15px -apple-system,BlinkMacSystemFont,"Segoe UI",Arial,sans-serif;fill:#111}
  .xs{font:600 12.5px -apple-system,BlinkMacSystemFont,"Segoe UI",Arial,sans-serif;fill:#666}
  .tiny{font:600 10.5px -apple-system,BlinkMacSystemFont,"Segoe UI",Arial,sans-serif;fill:#777}
  .white{font:700 12px -apple-system,BlinkMacSystemFont,"Segoe UI",Arial,sans-serif;fill:#fff}
</style></defs>
<rect width="1280" height="720" fill="#fff"/>
<rect x="32" y="32" width="1216" height="656" rx="24" class="frame"/>
<rect x="32" y="32" width="1216" height="70" rx="24" class="top"/>
<path d="M32 78 H1248" class="softline"/>
<circle cx="62" cy="66" r="7" fill="#111"/><circle cx="86" cy="66" r="7" fill="#8f8f8f"/><circle cx="110" cy="66" r="7" fill="#d0d0d0"/>
<text x="152" y="62" class="title">Waxis AI-ready Data &amp; Analytics</text><text x="152" y="84" class="sub">AI analytics loop from business question to governed SQL, answer artifact, and anomaly drivers.</text>
<rect x="76" y="132" width="352" height="224" rx="20" class="panel"/><text x="108" y="170" class="h">Natural-language Question</text><text x="108" y="202" class="m">Why did gross margin drop in Ontario</text><text x="108" y="224" class="m">last week?</text><rect x="108" y="236" width="280" height="10" rx="5" class="thin"/><rect x="108" y="260" width="228" height="10" rx="5" class="thin"/><rect x="108" y="294" width="120" height="28" rx="14.0" class="black"/><text x="168.0" y="312.0" class="white" text-anchor="middle">metric: margin</text><rect x="242" y="294" width="88" height="28" rx="14.0" class="thin"/><text x="286.0" y="312.0" class="xs" text-anchor="middle">region</text><rect x="482" y="132" width="298" height="224" rx="20" class="soft"/><text x="514" y="170" class="h">Semantic Metric Plan</text><rect x="514" y="204" width="154" height="22" rx="11.0" class="black"/><text x="591.0" y="219.0" class="white" text-anchor="middle">certified metric</text><rect x="514" y="234" width="154" height="22" rx="11.0" class="thin"/><text x="591.0" y="249.0" class="tiny" text-anchor="middle">join path</text><rect x="514" y="264" width="154" height="22" rx="11.0" class="thin"/><text x="591.0" y="279.0" class="tiny" text-anchor="middle">time grain</text><rect x="514" y="294" width="154" height="22" rx="11.0" class="thin"/><text x="591.0" y="309.0" class="tiny" text-anchor="middle">permission check</text><rect x="514" y="324" width="154" height="22" rx="11.0" class="thin"/><text x="591.0" y="339.0" class="tiny" text-anchor="middle">caveat rules</text><rect x="834" y="132" width="338" height="224" rx="20" class="panel"/><text x="866" y="170" class="h">Generated SQL + Review</text><rect x="866" y="204" width="236" height="10" rx="5" class="thin"/><rect x="866" y="232" width="188" height="10" rx="5" class="thin"/><rect x="866" y="260" width="266" height="10" rx="5" class="thin"/><rect x="866" y="288" width="214" height="10" rx="5" class="thin"/><rect x="866" y="318" width="102" height="26" rx="13.0" class="black"/><text x="917.0" y="335.0" class="white" text-anchor="middle">explain SQL</text><rect x="982" y="318" width="106" height="26" rx="13.0" class="thin"/><text x="1035.0" y="335.0" class="xs" text-anchor="middle">run safely</text><path d="M428 244 C452 244 452 244 482 244" class="line" marker-end="url(#arrow)"/><path d="M780 244 C806 244 806 244 834 244" class="line" marker-end="url(#arrow)"/><rect x="76" y="414" width="530" height="184" rx="20" class="panel"/><text x="108" y="452" class="h">Answer Artifact</text><polyline points="124,560 176,528 230,546 284,510 338,538 392,506 546,528" class="line"/><rect x="108" y="474" width="104" height="24" rx="12.0" class="thin"/><text x="160.0" y="490.0" class="tiny" text-anchor="middle">gross margin</text><rect x="228" y="474" width="104" height="24" rx="12.0" class="thin"/><text x="280.0" y="490.0" class="tiny" text-anchor="middle">Ontario</text><rect x="348" y="474" width="104" height="24" rx="12.0" class="thin"/><text x="400.0" y="490.0" class="tiny" text-anchor="middle">weekly</text><rect x="468" y="474" width="104" height="24" rx="12.0" class="black"/><text x="520.0" y="490.0" class="white" text-anchor="middle">source-backed</text><rect x="660" y="414" width="512" height="184" rx="20" class="panel"/><text x="692" y="452" class="h">Anomaly Driver Notebook</text><rect x="700" y="506" width="34" height="54" fill="#111" opacity="0.45"/><text x="717" y="580" class="tiny" text-anchor="middle">discount mix</text><rect x="798" y="482" width="34" height="78" fill="#111" opacity="1"/><text x="815" y="580" class="tiny" text-anchor="middle">freight cost</text><rect x="896" y="522" width="34" height="38" fill="#111" opacity="0.45"/><text x="913" y="580" class="tiny" text-anchor="middle">returns</text><rect x="994" y="496" width="34" height="64" fill="#111" opacity="0.45"/><text x="1011" y="580" class="tiny" text-anchor="middle">late supplier</text><rect x="76" y="632" width="1096" height="30" rx="15" class="soft"/><text x="104" y="652" class="tiny">Every answer links metric definitions, SQL, lineage, permissions, caveats, and report-ready narrative.</text>
</svg>